<svg xmlns="http://www.w3.org/2000/svg" height="300" width="300" class="graph" id="graph">
    <line stroke="gray" x1="0" x2="300" y1="150" y2="150"></line>
    <line stroke="gray" x1="150" x2="150" y1="0" y2="300"></line>
    <polygon fill="black" points="150,0 144,15 156,15" stroke="white"></polygon>
    <polygon fill="black" points="300,150 285,156 285,144" stroke="white"></polygon>

    <!-- Засечки -->
    <line stroke="gray" x1="200" x2="200" y1="155" y2="145"></line>
    <line stroke="gray" x1="250" x2="250" y1="155" y2="145"></line>

    <line stroke="gray" x1="50" x2="50" y1="155" y2="145"></line>
    <line stroke="gray" x1="100" x2="100" y1="155" y2="145"></line>

    <line stroke="gray" x1="145" x2="155" y1="100" y2="100"></line>
    <line stroke="gray" x1="145" x2="155" y1="50" y2="50"></line>

    <line stroke="gray" x1="145" x2="155" y1="200" y2="200"></line>
    <line stroke="gray" x1="145" x2="155" y1="250" y2="250"></line>

    <!-- Подписи к засечкам -->
    <text fill="black" x="195" y="140">R/2</text>
    <text fill="black" x="248" y="140">R</text>

    <text fill="black" x="40" y="140">-R</text>
    <text fill="black" x="90" y="140">-R/2</text>

    <text fill="black" x="160" y="105">R/2</text>
    <text fill="black" x="160" y="55">R</text>

    <text fill="black" x="160" y="205">-R/2</text>
    <text fill="black" x="160" y="255">-R</text>

    <text fill="black" x="160" y="10">Y</text>
    <text fill="black" x="290" y="140">X</text>

    <!-- Прямоугольники и полигоны -->
    <rect x="90" y="50" width="120" height="25" fill="#0000FF" fill-opacity="0.5"
          stroke="#0000FF"></rect>
    <rect x="90" y="180" width="120" height="25" fill="#0000FF" fill-opacity="0.5"
          stroke="#0000FF"></rect>
    <rect x="90" y="115" width="120" height="25" fill="#0000FF" fill-opacity="0.5"
          stroke="#0000FF"></rect>

    <polygon fill="#0000FF" fill-opacity="1" points="185,75 90,180 115,180 210,75"
             stroke="#0000FF"></polygon>
    <polygon fill="#0000FF" fill-opacity="0.5" points="90,115 115,115 155,75 130,75"
             stroke="#0000FF"></polygon>
    <polygon fill="#0000FF" fill-opacity="0.5" points="210,140 185,140 150,180 175,180"
             stroke="#0000FF"></polygon>

    <line stroke="white" stroke-width="3" stroke-opacity="0.7" x1="211" x2="116" y1="75"
          y2="180"></line>
</svg>